<svg width="17" height="19" viewBox="0 0 17 19" fill="none" xmlns="http://www.w3.org/2000/svg">
<path d="M8.5 19C9.1441 19 9.76181 18.7498 10.2173 18.3044C10.6727 17.859 10.9286 17.255 10.9286 16.6251H6.07143C6.07143 17.255 6.3273 17.859 6.78274 18.3044C7.23819 18.7498 7.8559 19 8.5 19ZM8.5 2.27854L7.53221 2.46972C6.43445 2.68844 5.44769 3.27136 4.73893 4.1198C4.03018 4.96825 3.64298 6.0301 3.64286 7.12565C3.64286 7.87136 3.48014 9.73444 3.0855 11.569C2.89121 12.4798 2.62893 13.4286 2.28043 14.2503H14.7196C14.3711 13.4286 14.11 12.481 13.9145 11.569C13.5199 9.73444 13.3571 7.87136 13.3571 7.12565C13.3567 6.03031 12.9694 4.96873 12.2607 4.12053C11.552 3.27233 10.5653 2.68959 9.46779 2.4709L8.5 2.27735V2.27854ZM16.0529 14.2503C16.3236 14.781 16.6369 15.2014 17 15.4377H0C0.363071 15.2014 0.676357 14.781 0.947143 14.2503C2.04 12.1129 2.42857 8.17059 2.42857 7.12565C2.42857 4.25206 4.51714 1.85344 7.29179 1.30603C7.27484 1.14092 7.29347 0.974173 7.34647 0.816537C7.39947 0.658902 7.48567 0.51388 7.59951 0.390824C7.71335 0.267768 7.8523 0.169411 8.0074 0.102095C8.1625 0.0347794 8.33031 0 8.5 0C8.66969 0 8.8375 0.0347794 8.9926 0.102095C9.1477 0.169411 9.28665 0.267768 9.40049 0.390824C9.51433 0.51388 9.60053 0.658902 9.65353 0.816537C9.70653 0.974173 9.72516 1.14092 9.70821 1.30603C11.0807 1.57902 12.3145 2.30747 13.2008 3.36801C14.087 4.42856 14.5713 5.75603 14.5714 7.12565C14.5714 8.17059 14.96 12.1129 16.0529 14.2503Z" fill="white"/>
</svg>
