<svg width="20" height="21" viewBox="0 0 20 21" fill="none" xmlns="http://www.w3.org/2000/svg">
<path d="M3.7609 6.2007C5.28435 2.72707 9.06438 0.769463 12.7326 1.74818C16.796 2.83237 19.1835 7.10928 18.0651 11.3009C16.9467 15.4926 12.746 18.0117 8.68253 16.9275C6.70441 16.3997 5.06731 15.0971 4.07305 13.3164C3.92691 13.0546 3.59999 12.9674 3.34286 13.1216C3.08573 13.2758 2.99575 13.613 3.14232 13.8756C4.27518 15.9045 6.14355 17.3911 8.39832 17.9927C13.0321 19.2291 17.8224 16.3564 19.0978 11.5765C20.3731 6.7965 17.6506 1.91932 13.0168 0.682967C8.77717 -0.448216 4.40653 1.86026 2.71684 5.92213L1.00025 5.46413L2.17406 9.77097L5.33735 6.62132L3.7609 6.2007Z" fill="white"/>
<rect x="9.77771" y="3.55029" width="0.887527" height="5.76893" rx="0.443764" fill="white"/>
<rect x="9.77771" y="9.03784" width="0.887528" height="5.54705" rx="0.443764" transform="rotate(-43.0915 9.77771 9.03784)" fill="white"/>
</svg>
